solid OpenSCAD_Model
  facet normal 0 0 -1
    outer loop
      vertex 3 -3.75 0
      vertex -3 -3.75 0
      vertex 3 -3.25 0
    endloop
  endfacet
  facet normal 0 0 -1
    outer loop
      vertex 5 0 0
      vertex 3 3.25 0
      vertex 5 3.25 0
    endloop
  endfacet
  facet normal 0 0 -1
    outer loop
      vertex 3 3.25 0
      vertex -3 3.25 0
      vertex 3 3.75 0
    endloop
  endfacet
  facet normal 0 0 -1
    outer loop
      vertex 5 0 0
      vertex -3 3.25 0
      vertex 3 3.25 0
    endloop
  endfacet
  facet normal 0 0 -1
    outer loop
      vertex -5 0 0
      vertex -3 3.25 0
      vertex 5 0 0
    endloop
  endfacet
  facet normal -0 0 -1
    outer loop
      vertex -3 3.25 0
      vertex -5 0 0
      vertex -5 3.25 0
    endloop
  endfacet
  facet normal 0 0 -1
    outer loop
      vertex 3 -3.25 0
      vertex 5 -2 0
      vertex 5 -3.25 0
    endloop
  endfacet
  facet normal 0 0 -1
    outer loop
      vertex -3 -3.25 0
      vertex 3 -3.25 0
      vertex -3 -3.75 0
    endloop
  endfacet
  facet normal 0 0 -1
    outer loop
      vertex 3 -3.25 0
      vertex -3 -3.25 0
      vertex 5 -2 0
    endloop
  endfacet
  facet normal 0 0 -1
    outer loop
      vertex -5 -2 0
      vertex -3 -3.25 0
      vertex -5 -3.25 0
    endloop
  endfacet
  facet normal 0 0 -1
    outer loop
      vertex -3 -3.25 0
      vertex -5 -2 0
      vertex 5 -2 0
    endloop
  endfacet
  facet normal 0 0 -1
    outer loop
      vertex 5 -3.25 0
      vertex 6 -3.75 0
      vertex 5 -3.75 0
    endloop
  endfacet
  facet normal 0 0 -1
    outer loop
      vertex 5 -2 0
      vertex 6 -3.75 0
      vertex 5 -3.25 0
    endloop
  endfacet
  facet normal 0 0 -1
    outer loop
      vertex 5 0 0
      vertex 6 -3.75 0
      vertex 5 -2 0
    endloop
  endfacet
  facet normal 0 0 -1
    outer loop
      vertex 6 -3.75 0
      vertex 5 0 0
      vertex 6 3.75 0
    endloop
  endfacet
  facet normal 0 0 -1
    outer loop
      vertex 5 3.25 0
      vertex 6 3.75 0
      vertex 5 0 0
    endloop
  endfacet
  facet normal -0 0 -1
    outer loop
      vertex 6 3.75 0
      vertex 5 3.25 0
      vertex 5 3.75 0
    endloop
  endfacet
  facet normal 0 0 -1
    outer loop
      vertex -6 -3.75 0
      vertex -5 -3.25 0
      vertex -5 -3.75 0
    endloop
  endfacet
  facet normal -0 0 -1
    outer loop
      vertex -5 -3.25 0
      vertex -6 -3.75 0
      vertex -5 -2 0
    endloop
  endfacet
  facet normal -0 0 -1
    outer loop
      vertex -5 -2 0
      vertex -6 -3.75 0
      vertex -5 0 0
    endloop
  endfacet
  facet normal 0 0 -1
    outer loop
      vertex -6 3.75 0
      vertex -5 0 0
      vertex -6 -3.75 0
    endloop
  endfacet
  facet normal 0 0 -1
    outer loop
      vertex -5 0 0
      vertex -6 3.75 0
      vertex -5 3.25 0
    endloop
  endfacet
  facet normal 0 0 -1
    outer loop
      vertex -5 3.25 0
      vertex -6 3.75 0
      vertex -5 3.75 0
    endloop
  endfacet
  facet normal -0 0 -1
    outer loop
      vertex 3 3.75 0
      vertex -3 3.25 0
      vertex -3 3.75 0
    endloop
  endfacet
  facet normal 1 -0 0
    outer loop
      vertex 6 -3.75 0.2
      vertex 6 3.75 0
      vertex 6 3.75 0.2
    endloop
  endfacet
  facet normal 1 0 0
    outer loop
      vertex 6 3.75 0
      vertex 6 -3.75 0.2
      vertex 6 -3.75 0
    endloop
  endfacet
  facet normal -1 0 0
    outer loop
      vertex -6 -3.75 0
      vertex -6 3.75 0.2
      vertex -6 3.75 0
    endloop
  endfacet
  facet normal -1 -0 0
    outer loop
      vertex -6 3.75 0.2
      vertex -6 -3.75 0
      vertex -6 -3.75 0.2
    endloop
  endfacet
  facet normal 0 -1 0
    outer loop
      vertex 5 -3.75 0
      vertex 6 -3.75 0.2
      vertex 5 -3.75 0.2
    endloop
  endfacet
  facet normal 0 -1 -0
    outer loop
      vertex 6 -3.75 0.2
      vertex 5 -3.75 0
      vertex 6 -3.75 0
    endloop
  endfacet
  facet normal 0 -1 0
    outer loop
      vertex -6 -3.75 0
      vertex -5 -3.75 0.2
      vertex -6 -3.75 0.2
    endloop
  endfacet
  facet normal 0 -1 -0
    outer loop
      vertex -5 -3.75 0.2
      vertex -6 -3.75 0
      vertex -5 -3.75 0
    endloop
  endfacet
  facet normal 0 -1 0
    outer loop
      vertex -3 -3.75 0
      vertex 3 -3.75 0.2
      vertex -3 -3.75 0.2
    endloop
  endfacet
  facet normal 0 -1 -0
    outer loop
      vertex 3 -3.75 0.2
      vertex -3 -3.75 0
      vertex 3 -3.75 0
    endloop
  endfacet
  facet normal 0 1 -0
    outer loop
      vertex -5 3.75 0
      vertex -6 3.75 0.2
      vertex -5 3.75 0.2
    endloop
  endfacet
  facet normal 0 1 0
    outer loop
      vertex -6 3.75 0.2
      vertex -5 3.75 0
      vertex -6 3.75 0
    endloop
  endfacet
  facet normal 0 1 -0
    outer loop
      vertex 6 3.75 0
      vertex 5 3.75 0.2
      vertex 6 3.75 0.2
    endloop
  endfacet
  facet normal 0 1 0
    outer loop
      vertex 5 3.75 0.2
      vertex 6 3.75 0
      vertex 5 3.75 0
    endloop
  endfacet
  facet normal 0 1 -0
    outer loop
      vertex 3 3.75 0
      vertex -3 3.75 0.2
      vertex 3 3.75 0.2
    endloop
  endfacet
  facet normal 0 1 0
    outer loop
      vertex -3 3.75 0.2
      vertex 3 3.75 0
      vertex -3 3.75 0
    endloop
  endfacet
  facet normal 0 0 1
    outer loop
      vertex 3 3.75 0.2
      vertex -3 3.75 0.2
      vertex 3 3.25 0.2
    endloop
  endfacet
  facet normal 0 0 1
    outer loop
      vertex 5 -2 0.2
      vertex 3 -3.25 0.2
      vertex 5 -3.25 0.2
    endloop
  endfacet
  facet normal 0 0 1
    outer loop
      vertex 3 -3.25 0.2
      vertex -3 -3.25 0.2
      vertex 3 -3.75 0.2
    endloop
  endfacet
  facet normal 0 0 1
    outer loop
      vertex 5 -2 0.2
      vertex -3 -3.25 0.2
      vertex 3 -3.25 0.2
    endloop
  endfacet
  facet normal -0 0 1
    outer loop
      vertex -5 -2 0.2
      vertex -3 -3.25 0.2
      vertex 5 -2 0.2
    endloop
  endfacet
  facet normal 0 0 1
    outer loop
      vertex -3 -3.25 0.2
      vertex -5 -2 0.2
      vertex -5 -3.25 0.2
    endloop
  endfacet
  facet normal -0 0 1
    outer loop
      vertex 3 3.25 0.2
      vertex 5 0 0.2
      vertex 5 3.25 0.2
    endloop
  endfacet
  facet normal 0 0 1
    outer loop
      vertex -3 3.25 0.2
      vertex 3 3.25 0.2
      vertex -3 3.75 0.2
    endloop
  endfacet
  facet normal 0 0 1
    outer loop
      vertex 3 3.25 0.2
      vertex -3 3.25 0.2
      vertex 5 0 0.2
    endloop
  endfacet
  facet normal 0 0 1
    outer loop
      vertex -5 0 0.2
      vertex -3 3.25 0.2
      vertex -5 3.25 0.2
    endloop
  endfacet
  facet normal 0 0 1
    outer loop
      vertex -3 3.25 0.2
      vertex -5 0 0.2
      vertex 5 0 0.2
    endloop
  endfacet
  facet normal 0 0 1
    outer loop
      vertex 5 3.25 0.2
      vertex 6 3.75 0.2
      vertex 5 3.75 0.2
    endloop
  endfacet
  facet normal 0 0 1
    outer loop
      vertex 5 0 0.2
      vertex 6 3.75 0.2
      vertex 5 3.25 0.2
    endloop
  endfacet
  facet normal 0 0 1
    outer loop
      vertex 6 3.75 0.2
      vertex 5 0 0.2
      vertex 6 -3.75 0.2
    endloop
  endfacet
  facet normal -0 0 1
    outer loop
      vertex 5 -2 0.2
      vertex 6 -3.75 0.2
      vertex 5 0 0.2
    endloop
  endfacet
  facet normal -0 0 1
    outer loop
      vertex 5 -3.25 0.2
      vertex 6 -3.75 0.2
      vertex 5 -2 0.2
    endloop
  endfacet
  facet normal 0 0 1
    outer loop
      vertex 6 -3.75 0.2
      vertex 5 -3.25 0.2
      vertex 5 -3.75 0.2
    endloop
  endfacet
  facet normal -0 0 1
    outer loop
      vertex -6 3.75 0.2
      vertex -5 3.25 0.2
      vertex -5 3.75 0.2
    endloop
  endfacet
  facet normal 0 0 1
    outer loop
      vertex -5 3.25 0.2
      vertex -6 3.75 0.2
      vertex -5 0 0.2
    endloop
  endfacet
  facet normal 0 0 1
    outer loop
      vertex -6 -3.75 0.2
      vertex -5 0 0.2
      vertex -6 3.75 0.2
    endloop
  endfacet
  facet normal 0 0 1
    outer loop
      vertex -5 0 0.2
      vertex -6 -3.75 0.2
      vertex -5 -2 0.2
    endloop
  endfacet
  facet normal 0 0 1
    outer loop
      vertex -5 -2 0.2
      vertex -6 -3.75 0.2
      vertex -5 -3.25 0.2
    endloop
  endfacet
  facet normal 0 0 1
    outer loop
      vertex -5 -3.25 0.2
      vertex -6 -3.75 0.2
      vertex -5 -3.75 0.2
    endloop
  endfacet
  facet normal 0 0 1
    outer loop
      vertex 3 -3.75 0.2
      vertex -3 -3.25 0.2
      vertex -3 -3.75 0.2
    endloop
  endfacet
  facet normal -1 0 0
    outer loop
      vertex 5 -2 0
      vertex 5 0 0.2
      vertex 5 0 0
    endloop
  endfacet
  facet normal -1 -0 0
    outer loop
      vertex 5 0 0.2
      vertex 5 -2 0
      vertex 5 -2 0.2
    endloop
  endfacet
  facet normal 1 -0 0
    outer loop
      vertex -5 -2 0.2
      vertex -5 0 0
      vertex -5 0 0.2
    endloop
  endfacet
  facet normal 1 0 0
    outer loop
      vertex -5 0 0
      vertex -5 -2 0.2
      vertex -5 -2 0
    endloop
  endfacet
  facet normal 0 1 -0
    outer loop
      vertex 5 -2 0
      vertex -5 -2 0.2
      vertex 5 -2 0.2
    endloop
  endfacet
  facet normal 0 1 0
    outer loop
      vertex -5 -2 0.2
      vertex 5 -2 0
      vertex -5 -2 0
    endloop
  endfacet
  facet normal 0 -1 0
    outer loop
      vertex -5 0 0
      vertex 5 0 0.2
      vertex -5 0 0.2
    endloop
  endfacet
  facet normal 0 -1 -0
    outer loop
      vertex 5 0 0.2
      vertex -5 0 0
      vertex 5 0 0
    endloop
  endfacet
  facet normal -1 0 0
    outer loop
      vertex -3 -3.75 0
      vertex -3 -3.25 0.2
      vertex -3 -3.25 0
    endloop
  endfacet
  facet normal -1 -0 0
    outer loop
      vertex -3 -3.25 0.2
      vertex -3 -3.75 0
      vertex -3 -3.75 0.2
    endloop
  endfacet
  facet normal 1 -0 0
    outer loop
      vertex -5 -3.75 0.2
      vertex -5 -3.25 0
      vertex -5 -3.25 0.2
    endloop
  endfacet
  facet normal 1 0 0
    outer loop
      vertex -5 -3.25 0
      vertex -5 -3.75 0.2
      vertex -5 -3.75 0
    endloop
  endfacet
  facet normal 0 -1 0
    outer loop
      vertex -5 -3.25 0
      vertex -3 -3.25 0.2
      vertex -5 -3.25 0.2
    endloop
  endfacet
  facet normal 0 -1 -0
    outer loop
      vertex -3 -3.25 0.2
      vertex -5 -3.25 0
      vertex -3 -3.25 0
    endloop
  endfacet
  facet normal -1 0 0
    outer loop
      vertex 5 -3.75 0
      vertex 5 -3.25 0.2
      vertex 5 -3.25 0
    endloop
  endfacet
  facet normal -1 -0 0
    outer loop
      vertex 5 -3.25 0.2
      vertex 5 -3.75 0
      vertex 5 -3.75 0.2
    endloop
  endfacet
  facet normal 1 -0 0
    outer loop
      vertex 3 -3.75 0.2
      vertex 3 -3.25 0
      vertex 3 -3.25 0.2
    endloop
  endfacet
  facet normal 1 0 0
    outer loop
      vertex 3 -3.25 0
      vertex 3 -3.75 0.2
      vertex 3 -3.75 0
    endloop
  endfacet
  facet normal 0 -1 0
    outer loop
      vertex 3 -3.25 0
      vertex 5 -3.25 0.2
      vertex 3 -3.25 0.2
    endloop
  endfacet
  facet normal 0 -1 -0
    outer loop
      vertex 5 -3.25 0.2
      vertex 3 -3.25 0
      vertex 5 -3.25 0
    endloop
  endfacet
  facet normal -1 0 0
    outer loop
      vertex -3 3.25 0
      vertex -3 3.75 0.2
      vertex -3 3.75 0
    endloop
  endfacet
  facet normal -1 -0 0
    outer loop
      vertex -3 3.75 0.2
      vertex -3 3.25 0
      vertex -3 3.25 0.2
    endloop
  endfacet
  facet normal 1 -0 0
    outer loop
      vertex -5 3.25 0.2
      vertex -5 3.75 0
      vertex -5 3.75 0.2
    endloop
  endfacet
  facet normal 1 0 0
    outer loop
      vertex -5 3.75 0
      vertex -5 3.25 0.2
      vertex -5 3.25 0
    endloop
  endfacet
  facet normal 0 1 -0
    outer loop
      vertex -3 3.25 0
      vertex -5 3.25 0.2
      vertex -3 3.25 0.2
    endloop
  endfacet
  facet normal 0 1 0
    outer loop
      vertex -5 3.25 0.2
      vertex -3 3.25 0
      vertex -5 3.25 0
    endloop
  endfacet
  facet normal -1 0 0
    outer loop
      vertex 5 3.25 0
      vertex 5 3.75 0.2
      vertex 5 3.75 0
    endloop
  endfacet
  facet normal -1 -0 0
    outer loop
      vertex 5 3.75 0.2
      vertex 5 3.25 0
      vertex 5 3.25 0.2
    endloop
  endfacet
  facet normal 1 -0 0
    outer loop
      vertex 3 3.25 0.2
      vertex 3 3.75 0
      vertex 3 3.75 0.2
    endloop
  endfacet
  facet normal 1 0 0
    outer loop
      vertex 3 3.75 0
      vertex 3 3.25 0.2
      vertex 3 3.25 0
    endloop
  endfacet
  facet normal 0 1 -0
    outer loop
      vertex 5 3.25 0
      vertex 3 3.25 0.2
      vertex 5 3.25 0.2
    endloop
  endfacet
  facet normal 0 1 0
    outer loop
      vertex 3 3.25 0.2
      vertex 5 3.25 0
      vertex 3 3.25 0
    endloop
  endfacet
  facet normal 0 0 -1
    outer loop
      vertex -6 6.25 0
      vertex 6 13.75 0
      vertex 6 6.25 0
    endloop
  endfacet
  facet normal -0 0 -1
    outer loop
      vertex 6 13.75 0
      vertex -6 6.25 0
      vertex -6 13.75 0
    endloop
  endfacet
  facet normal 1 0 0
    outer loop
      vertex 6 6.75 0.5
      vertex 6 6.25 0.5
      vertex 6 6.75 0.2
    endloop
  endfacet
  facet normal 1 0 0
    outer loop
      vertex 6 13.25 0.2
      vertex 6 13.75 0.5
      vertex 6 13.25 0.5
    endloop
  endfacet
  facet normal 1 0 0
    outer loop
      vertex 6 13.75 0.5
      vertex 6 13.25 0.2
      vertex 6 13.75 0
    endloop
  endfacet
  facet normal 1 -0 0
    outer loop
      vertex 6 6.75 0.2
      vertex 6 13.75 0
      vertex 6 13.25 0.2
    endloop
  endfacet
  facet normal 1 0 0
    outer loop
      vertex 6 6.75 0.2
      vertex 6 6.25 0
      vertex 6 13.75 0
    endloop
  endfacet
  facet normal 1 0 0
    outer loop
      vertex 6 6.25 0
      vertex 6 6.75 0.2
      vertex 6 6.25 0.5
    endloop
  endfacet
  facet normal -1 0 0
    outer loop
      vertex -6 13.75 0
      vertex -6 13.25 0.2
      vertex -6 13.75 0.5
    endloop
  endfacet
  facet normal -1 0 0
    outer loop
      vertex -6 13.75 0
      vertex -6 6.75 0.2
      vertex -6 13.25 0.2
    endloop
  endfacet
  facet normal -1 0 0
    outer loop
      vertex -6 6.25 0
      vertex -6 6.75 0.2
      vertex -6 13.75 0
    endloop
  endfacet
  facet normal -1 0 0
    outer loop
      vertex -6 6.25 0.5
      vertex -6 6.75 0.2
      vertex -6 6.25 0
    endloop
  endfacet
  facet normal -1 0 0
    outer loop
      vertex -6 6.75 0.2
      vertex -6 6.25 0.5
      vertex -6 6.75 0.5
    endloop
  endfacet
  facet normal -1 -0 0
    outer loop
      vertex -6 13.75 0.5
      vertex -6 13.25 0.2
      vertex -6 13.25 0.5
    endloop
  endfacet
  facet normal 0 -1 0
    outer loop
      vertex -6 6.25 0
      vertex -5 6.25 0.5
      vertex -6 6.25 0.5
    endloop
  endfacet
  facet normal 0 -1 -0
    outer loop
      vertex -5 6.25 0.5
      vertex -6 6.25 0
      vertex -3 6.25 0.5
    endloop
  endfacet
  facet normal 0 -1 -0
    outer loop
      vertex -3 6.25 0.5
      vertex -6 6.25 0
      vertex 3 6.25 0.5
    endloop
  endfacet
  facet normal 0 -1 0
    outer loop
      vertex 6 6.25 0
      vertex 3 6.25 0.5
      vertex -6 6.25 0
    endloop
  endfacet
  facet normal 0 -1 0
    outer loop
      vertex 3 6.25 0.5
      vertex 6 6.25 0
      vertex 5 6.25 0.5
    endloop
  endfacet
  facet normal 0 -1 0
    outer loop
      vertex 5 6.25 0.5
      vertex 6 6.25 0
      vertex 6 6.25 0.5
    endloop
  endfacet
  facet normal 0 -1 0
    outer loop
      vertex -5 6.25 0.5
      vertex -3 6.25 0.7
      vertex -5 6.25 0.7
    endloop
  endfacet
  facet normal 0 -1 -0
    outer loop
      vertex -3 6.25 0.7
      vertex -5 6.25 0.5
      vertex -3 6.25 0.5
    endloop
  endfacet
  facet normal 0 -1 0
    outer loop
      vertex 3 6.25 0.5
      vertex 5 6.25 0.7
      vertex 3 6.25 0.7
    endloop
  endfacet
  facet normal 0 -1 -0
    outer loop
      vertex 5 6.25 0.7
      vertex 3 6.25 0.5
      vertex 5 6.25 0.5
    endloop
  endfacet
  facet normal 0 1 -0
    outer loop
      vertex 6 13.75 0
      vertex 5 13.75 0.5
      vertex 6 13.75 0.5
    endloop
  endfacet
  facet normal 0 1 0
    outer loop
      vertex 5 13.75 0.5
      vertex 6 13.75 0
      vertex 3 13.75 0.5
    endloop
  endfacet
  facet normal 0 1 0
    outer loop
      vertex 3 13.75 0.5
      vertex 6 13.75 0
      vertex -3 13.75 0.5
    endloop
  endfacet
  facet normal 0 1 0
    outer loop
      vertex -6 13.75 0
      vertex -3 13.75 0.5
      vertex 6 13.75 0
    endloop
  endfacet
  facet normal 0 1 0
    outer loop
      vertex -3 13.75 0.5
      vertex -6 13.75 0
      vertex -5 13.75 0.5
    endloop
  endfacet
  facet normal 0 1 0
    outer loop
      vertex -5 13.75 0.5
      vertex -6 13.75 0
      vertex -6 13.75 0.5
    endloop
  endfacet
  facet normal 0 1 -0
    outer loop
      vertex 5 13.75 0.5
      vertex 3 13.75 0.7
      vertex 5 13.75 0.7
    endloop
  endfacet
  facet normal 0 1 0
    outer loop
      vertex 3 13.75 0.7
      vertex 5 13.75 0.5
      vertex 3 13.75 0.5
    endloop
  endfacet
  facet normal 0 1 -0
    outer loop
      vertex -3 13.75 0.5
      vertex -5 13.75 0.7
      vertex -3 13.75 0.7
    endloop
  endfacet
  facet normal 0 1 0
    outer loop
      vertex -5 13.75 0.7
      vertex -3 13.75 0.5
      vertex -5 13.75 0.5
    endloop
  endfacet
  facet normal -0 0 1
    outer loop
      vertex -6 13.25 0.2
      vertex 6 6.75 0.2
      vertex 6 13.25 0.2
    endloop
  endfacet
  facet normal 0 0 1
    outer loop
      vertex 6 6.75 0.2
      vertex -6 13.25 0.2
      vertex -6 6.75 0.2
    endloop
  endfacet
  facet normal 0 1 -0
    outer loop
      vertex 6 6.75 0.2
      vertex 5 6.75 0.5
      vertex 6 6.75 0.5
    endloop
  endfacet
  facet normal 0 1 0
    outer loop
      vertex 5 6.75 0.5
      vertex 6 6.75 0.2
      vertex 3 6.75 0.5
    endloop
  endfacet
  facet normal 0 1 0
    outer loop
      vertex 3 6.75 0.5
      vertex 6 6.75 0.2
      vertex -3 6.75 0.5
    endloop
  endfacet
  facet normal 0 1 0
    outer loop
      vertex -6 6.75 0.2
      vertex -3 6.75 0.5
      vertex 6 6.75 0.2
    endloop
  endfacet
  facet normal 0 1 0
    outer loop
      vertex -3 6.75 0.5
      vertex -6 6.75 0.2
      vertex -5 6.75 0.5
    endloop
  endfacet
  facet normal 0 1 0
    outer loop
      vertex -5 6.75 0.5
      vertex -6 6.75 0.2
      vertex -6 6.75 0.5
    endloop
  endfacet
  facet normal 0 1 -0
    outer loop
      vertex 5 6.75 0.5
      vertex 3 6.75 0.7
      vertex 5 6.75 0.7
    endloop
  endfacet
  facet normal 0 1 0
    outer loop
      vertex 3 6.75 0.7
      vertex 5 6.75 0.5
      vertex 3 6.75 0.5
    endloop
  endfacet
  facet normal 0 1 -0
    outer loop
      vertex -3 6.75 0.5
      vertex -5 6.75 0.7
      vertex -3 6.75 0.7
    endloop
  endfacet
  facet normal 0 1 0
    outer loop
      vertex -5 6.75 0.7
      vertex -3 6.75 0.5
      vertex -5 6.75 0.5
    endloop
  endfacet
  facet normal -0 0 1
    outer loop
      vertex 5 6.75 0.5
      vertex 6 6.25 0.5
      vertex 6 6.75 0.5
    endloop
  endfacet
  facet normal 0 0 1
    outer loop
      vertex 6 6.25 0.5
      vertex 5 6.75 0.5
      vertex 5 6.25 0.5
    endloop
  endfacet
  facet normal -0 0 1
    outer loop
      vertex -3 6.75 0.5
      vertex 3 6.25 0.5
      vertex 3 6.75 0.5
    endloop
  endfacet
  facet normal 0 0 1
    outer loop
      vertex 3 6.25 0.5
      vertex -3 6.75 0.5
      vertex -3 6.25 0.5
    endloop
  endfacet
  facet normal -0 0 1
    outer loop
      vertex -6 6.75 0.5
      vertex -5 6.25 0.5
      vertex -5 6.75 0.5
    endloop
  endfacet
  facet normal 0 0 1
    outer loop
      vertex -5 6.25 0.5
      vertex -6 6.75 0.5
      vertex -6 6.25 0.5
    endloop
  endfacet
  facet normal 0 -1 0
    outer loop
      vertex -6 13.25 0.2
      vertex -5 13.25 0.5
      vertex -6 13.25 0.5
    endloop
  endfacet
  facet normal 0 -1 -0
    outer loop
      vertex -5 13.25 0.5
      vertex -6 13.25 0.2
      vertex -3 13.25 0.5
    endloop
  endfacet
  facet normal 0 -1 -0
    outer loop
      vertex -3 13.25 0.5
      vertex -6 13.25 0.2
      vertex 3 13.25 0.5
    endloop
  endfacet
  facet normal 0 -1 0
    outer loop
      vertex 6 13.25 0.2
      vertex 3 13.25 0.5
      vertex -6 13.25 0.2
    endloop
  endfacet
  facet normal 0 -1 0
    outer loop
      vertex 3 13.25 0.5
      vertex 6 13.25 0.2
      vertex 5 13.25 0.5
    endloop
  endfacet
  facet normal 0 -1 0
    outer loop
      vertex 5 13.25 0.5
      vertex 6 13.25 0.2
      vertex 6 13.25 0.5
    endloop
  endfacet
  facet normal 0 -1 0
    outer loop
      vertex -5 13.25 0.5
      vertex -3 13.25 0.7
      vertex -5 13.25 0.7
    endloop
  endfacet
  facet normal 0 -1 -0
    outer loop
      vertex -3 13.25 0.7
      vertex -5 13.25 0.5
      vertex -3 13.25 0.5
    endloop
  endfacet
  facet normal 0 -1 0
    outer loop
      vertex 3 13.25 0.5
      vertex 5 13.25 0.7
      vertex 3 13.25 0.7
    endloop
  endfacet
  facet normal 0 -1 -0
    outer loop
      vertex 5 13.25 0.7
      vertex 3 13.25 0.5
      vertex 5 13.25 0.5
    endloop
  endfacet
  facet normal -0 0 1
    outer loop
      vertex 5 13.75 0.5
      vertex 6 13.25 0.5
      vertex 6 13.75 0.5
    endloop
  endfacet
  facet normal 0 0 1
    outer loop
      vertex 6 13.25 0.5
      vertex 5 13.75 0.5
      vertex 5 13.25 0.5
    endloop
  endfacet
  facet normal -0 0 1
    outer loop
      vertex -3 13.75 0.5
      vertex 3 13.25 0.5
      vertex 3 13.75 0.5
    endloop
  endfacet
  facet normal 0 0 1
    outer loop
      vertex 3 13.25 0.5
      vertex -3 13.75 0.5
      vertex -3 13.25 0.5
    endloop
  endfacet
  facet normal -0 0 1
    outer loop
      vertex -6 13.75 0.5
      vertex -5 13.25 0.5
      vertex -5 13.75 0.5
    endloop
  endfacet
  facet normal 0 0 1
    outer loop
      vertex -5 13.25 0.5
      vertex -6 13.75 0.5
      vertex -6 13.25 0.5
    endloop
  endfacet
  facet normal 1 -0 0
    outer loop
      vertex -3 6.25 0.7
      vertex -3 6.75 0.5
      vertex -3 6.75 0.7
    endloop
  endfacet
  facet normal 1 0 0
    outer loop
      vertex -3 6.75 0.5
      vertex -3 6.25 0.7
      vertex -3 6.25 0.5
    endloop
  endfacet
  facet normal -1 0 0
    outer loop
      vertex -5 6.25 0.5
      vertex -5 6.75 0.7
      vertex -5 6.75 0.5
    endloop
  endfacet
  facet normal -1 -0 0
    outer loop
      vertex -5 6.75 0.7
      vertex -5 6.25 0.5
      vertex -5 6.25 0.7
    endloop
  endfacet
  facet normal -0 0 1
    outer loop
      vertex -5 6.75 0.7
      vertex -3 6.25 0.7
      vertex -3 6.75 0.7
    endloop
  endfacet
  facet normal 0 0 1
    outer loop
      vertex -3 6.25 0.7
      vertex -5 6.75 0.7
      vertex -5 6.25 0.7
    endloop
  endfacet
  facet normal 1 -0 0
    outer loop
      vertex 5 6.25 0.7
      vertex 5 6.75 0.5
      vertex 5 6.75 0.7
    endloop
  endfacet
  facet normal 1 0 0
    outer loop
      vertex 5 6.75 0.5
      vertex 5 6.25 0.7
      vertex 5 6.25 0.5
    endloop
  endfacet
  facet normal -1 0 0
    outer loop
      vertex 3 6.25 0.5
      vertex 3 6.75 0.7
      vertex 3 6.75 0.5
    endloop
  endfacet
  facet normal -1 -0 0
    outer loop
      vertex 3 6.75 0.7
      vertex 3 6.25 0.5
      vertex 3 6.25 0.7
    endloop
  endfacet
  facet normal -0 0 1
    outer loop
      vertex 3 6.75 0.7
      vertex 5 6.25 0.7
      vertex 5 6.75 0.7
    endloop
  endfacet
  facet normal 0 0 1
    outer loop
      vertex 5 6.25 0.7
      vertex 3 6.75 0.7
      vertex 3 6.25 0.7
    endloop
  endfacet
  facet normal 1 -0 0
    outer loop
      vertex -3 13.25 0.7
      vertex -3 13.75 0.5
      vertex -3 13.75 0.7
    endloop
  endfacet
  facet normal 1 0 0
    outer loop
      vertex -3 13.75 0.5
      vertex -3 13.25 0.7
      vertex -3 13.25 0.5
    endloop
  endfacet
  facet normal -1 0 0
    outer loop
      vertex -5 13.25 0.5
      vertex -5 13.75 0.7
      vertex -5 13.75 0.5
    endloop
  endfacet
  facet normal -1 -0 0
    outer loop
      vertex -5 13.75 0.7
      vertex -5 13.25 0.5
      vertex -5 13.25 0.7
    endloop
  endfacet
  facet normal -0 0 1
    outer loop
      vertex -5 13.75 0.7
      vertex -3 13.25 0.7
      vertex -3 13.75 0.7
    endloop
  endfacet
  facet normal 0 0 1
    outer loop
      vertex -3 13.25 0.7
      vertex -5 13.75 0.7
      vertex -5 13.25 0.7
    endloop
  endfacet
  facet normal 1 -0 0
    outer loop
      vertex 5 13.25 0.7
      vertex 5 13.75 0.5
      vertex 5 13.75 0.7
    endloop
  endfacet
  facet normal 1 0 0
    outer loop
      vertex 5 13.75 0.5
      vertex 5 13.25 0.7
      vertex 5 13.25 0.5
    endloop
  endfacet
  facet normal -1 0 0
    outer loop
      vertex 3 13.25 0.5
      vertex 3 13.75 0.7
      vertex 3 13.75 0.5
    endloop
  endfacet
  facet normal -1 -0 0
    outer loop
      vertex 3 13.75 0.7
      vertex 3 13.25 0.5
      vertex 3 13.25 0.7
    endloop
  endfacet
  facet normal -0 0 1
    outer loop
      vertex 3 13.75 0.7
      vertex 5 13.25 0.7
      vertex 5 13.75 0.7
    endloop
  endfacet
  facet normal 0 0 1
    outer loop
      vertex 5 13.25 0.7
      vertex 3 13.75 0.7
      vertex 3 13.25 0.7
    endloop
  endfacet
  facet normal 0 0 -1
    outer loop
      vertex -6 -13.245 0
      vertex 6 -6.755 0
      vertex 6 -13.245 0
    endloop
  endfacet
  facet normal -0 0 -1
    outer loop
      vertex 6 -6.755 0
      vertex -6 -13.245 0
      vertex -6 -6.755 0
    endloop
  endfacet
  facet normal 1 -0 0
    outer loop
      vertex 6 -13.245 0.2
      vertex 6 -6.755 0
      vertex 6 -6.755 0.2
    endloop
  endfacet
  facet normal 1 0 0
    outer loop
      vertex 6 -6.755 0
      vertex 6 -13.245 0.2
      vertex 6 -13.245 0
    endloop
  endfacet
  facet normal -1 0 0
    outer loop
      vertex -6 -13.245 0
      vertex -6 -6.755 0.2
      vertex -6 -6.755 0
    endloop
  endfacet
  facet normal -1 -0 0
    outer loop
      vertex -6 -6.755 0.2
      vertex -6 -13.245 0
      vertex -6 -13.245 0.2
    endloop
  endfacet
  facet normal 0 -1 0
    outer loop
      vertex -6 -13.245 0
      vertex 6 -13.245 0.2
      vertex -6 -13.245 0.2
    endloop
  endfacet
  facet normal 0 -1 -0
    outer loop
      vertex 6 -13.245 0.2
      vertex -6 -13.245 0
      vertex 6 -13.245 0
    endloop
  endfacet
  facet normal 0 1 -0
    outer loop
      vertex 6 -6.755 0
      vertex -6 -6.755 0.2
      vertex 6 -6.755 0.2
    endloop
  endfacet
  facet normal 0 1 0
    outer loop
      vertex -6 -6.755 0.2
      vertex 6 -6.755 0
      vertex -6 -6.755 0
    endloop
  endfacet
  facet normal -0 0 1
    outer loop
      vertex -6 -6.755 0.2
      vertex 6 -13.245 0.2
      vertex 6 -6.755 0.2
    endloop
  endfacet
  facet normal 0 0 1
    outer loop
      vertex 6 -13.245 0.2
      vertex -6 -6.755 0.2
      vertex -6 -13.245 0.2
    endloop
  endfacet
endsolid OpenSCAD_Model
